<mxfile host="app.diagrams.net" modified="2024-06-29T00:10:27.100Z" agent="Mozilla/5.0 (Windows NT 10.0; Win64; x64) AppleWebKit/537.36 (KHTML, like Gecko) Chrome/125.0.0.0 Safari/537.36" etag="ZxAdYEQ3Cbvws9k8kAdR" version="24.6.4" type="github">
  <diagram name="Page-1" id="9GNOP1papJ0DBAOT-mjX">
    <mxGraphModel dx="989" dy="538" grid="1" gridSize="10" guides="1" tooltips="1" connect="1" arrows="1" fold="1" page="1" pageScale="1" pageWidth="850" pageHeight="1100" math="0" shadow="0">
      <root>
        <mxCell id="0" />
        <mxCell id="1" parent="0" />
        <mxCell id="f2yBBCpayn5oFeo3ENTH-11" style="edgeStyle=orthogonalEdgeStyle;rounded=0;orthogonalLoop=1;jettySize=auto;html=1;entryX=0.5;entryY=0;entryDx=0;entryDy=0;" edge="1" parent="1" source="f2yBBCpayn5oFeo3ENTH-1" target="f2yBBCpayn5oFeo3ENTH-10">
          <mxGeometry relative="1" as="geometry" />
        </mxCell>
        <mxCell id="f2yBBCpayn5oFeo3ENTH-1" value="Load all libjpeg directories" style="rounded=1;whiteSpace=wrap;html=1;fontFamily=Roboto;fontSource=https%3A%2F%2Ffonts.googleapis.com%2Fcss%3Ffamily%3DRoboto;" vertex="1" parent="1">
          <mxGeometry x="280" y="160" width="120" height="40" as="geometry" />
        </mxCell>
        <mxCell id="f2yBBCpayn5oFeo3ENTH-9" style="edgeStyle=orthogonalEdgeStyle;rounded=0;orthogonalLoop=1;jettySize=auto;html=1;entryX=0;entryY=0.5;entryDx=0;entryDy=0;dashed=1;" edge="1" parent="1" source="f2yBBCpayn5oFeo3ENTH-2" target="f2yBBCpayn5oFeo3ENTH-1">
          <mxGeometry relative="1" as="geometry" />
        </mxCell>
        <mxCell id="f2yBBCpayn5oFeo3ENTH-2" value="Directories" style="swimlane;fontStyle=0;childLayout=stackLayout;horizontal=1;startSize=20;horizontalStack=0;resizeParent=1;resizeParentMax=0;resizeLast=0;collapsible=1;marginBottom=0;whiteSpace=wrap;html=1;fontFamily=Roboto;fontSource=https%3A%2F%2Ffonts.googleapis.com%2Fcss%3Ffamily%3DRoboto;" vertex="1" parent="1">
          <mxGeometry x="30" y="140" width="140" height="80" as="geometry" />
        </mxCell>
        <mxCell id="f2yBBCpayn5oFeo3ENTH-3" value="path" style="text;strokeColor=none;fillColor=none;align=left;verticalAlign=middle;spacingLeft=4;spacingRight=4;overflow=hidden;points=[[0,0.5],[1,0.5]];portConstraint=eastwest;rotatable=0;whiteSpace=wrap;html=1;" vertex="1" parent="f2yBBCpayn5oFeo3ENTH-2">
          <mxGeometry y="20" width="140" height="30" as="geometry" />
        </mxCell>
        <mxCell id="f2yBBCpayn5oFeo3ENTH-8" value="tree of content" style="text;strokeColor=none;fillColor=none;align=left;verticalAlign=middle;spacingLeft=4;spacingRight=4;overflow=hidden;points=[[0,0.5],[1,0.5]];portConstraint=eastwest;rotatable=0;whiteSpace=wrap;html=1;" vertex="1" parent="f2yBBCpayn5oFeo3ENTH-2">
          <mxGeometry y="50" width="140" height="30" as="geometry" />
        </mxCell>
        <mxCell id="f2yBBCpayn5oFeo3ENTH-10" value="Compare trees" style="rounded=1;whiteSpace=wrap;html=1;fontFamily=Roboto;fontSource=https%3A%2F%2Ffonts.googleapis.com%2Fcss%3Ffamily%3DRoboto;" vertex="1" parent="1">
          <mxGeometry x="280" y="240" width="120" height="40" as="geometry" />
        </mxCell>
      </root>
    </mxGraphModel>
  </diagram>
</mxfile>
